<svg id="visual" viewBox="0 0 960 540" width="960" height="540" xmlns="http://www.w3.org/2000/svg" xmlns:xlink="http://www.w3.org/1999/xlink" version="1.1"><path d="M0 44L160 44L320 39L480 39L640 50L800 44L960 39L960 0L800 0L640 0L480 0L320 0L160 0L0 0Z" fill="#4d7333"></path><path d="M0 71L160 66L320 60L480 66L640 82L800 66L960 66L960 37L800 42L640 48L480 37L320 37L160 42L0 42Z" fill="#3b572a"></path><path d="M0 190L160 190L320 195L480 185L640 190L800 163L960 168L960 64L800 64L640 80L480 64L320 58L160 64L0 69Z" fill="#2b3d20"></path><path d="M0 217L160 217L320 228L480 217L640 217L800 190L960 201L960 166L800 161L640 188L480 183L320 193L160 188L0 188Z" fill="#1b2416"></path><path d="M0 271L160 266L320 293L480 266L640 266L800 255L960 255L960 199L800 188L640 215L480 215L320 226L160 215L0 215Z" fill="#12160f"></path><path d="M0 379L160 384L320 395L480 384L640 368L800 368L960 363L960 253L800 253L640 264L480 264L320 291L160 264L0 269Z" fill="#12160f"></path><path d="M0 411L160 417L320 428L480 417L640 395L800 406L960 401L960 361L800 366L640 366L480 382L320 393L160 382L0 377Z" fill="#1b2416"></path><path d="M0 433L160 438L320 449L480 444L640 422L800 428L960 422L960 399L800 404L640 393L480 415L320 426L160 415L0 409Z" fill="#2b3d20"></path><path d="M0 503L160 503L320 503L480 509L640 498L800 503L960 498L960 420L800 426L640 420L480 442L320 447L160 436L0 431Z" fill="#3b572a"></path><path d="M0 541L160 541L320 541L480 541L640 541L800 541L960 541L960 496L800 501L640 496L480 507L320 501L160 501L0 501Z" fill="#4d7333"></path></svg>