<svg id="visual" viewBox="0 0 960 540" width="960" height="540" xmlns="http://www.w3.org/2000/svg" xmlns:xlink="http://www.w3.org/1999/xlink" version="1.1"><path d="M0 33L96 33L96 60L192 60L192 82L288 82L288 44L384 44L384 33L480 33L480 44L576 44L576 44L672 44L672 33L768 33L768 39L864 39L864 55L960 55L960 77L960 0L960 0L864 0L864 0L768 0L768 0L672 0L672 0L576 0L576 0L480 0L480 0L384 0L384 0L288 0L288 0L192 0L192 0L96 0L96 0L0 0Z" fill="#12160f"></path><path d="M0 104L96 104L96 125L192 125L192 158L288 158L288 114L384 114L384 114L480 114L480 114L576 114L576 93L672 93L672 141L768 141L768 120L864 120L864 141L960 141L960 136L960 75L960 53L864 53L864 37L768 37L768 31L672 31L672 42L576 42L576 42L480 42L480 31L384 31L384 42L288 42L288 80L192 80L192 58L96 58L96 31L0 31Z" fill="#212e1a"></path><path d="M0 147L96 147L96 152L192 152L192 174L288 174L288 136L384 136L384 152L480 152L480 131L576 131L576 131L672 131L672 163L768 163L768 158L864 158L864 158L960 158L960 158L960 134L960 139L864 139L864 118L768 118L768 139L672 139L672 91L576 91L576 112L480 112L480 112L384 112L384 112L288 112L288 156L192 156L192 123L96 123L96 102L0 102Z" fill="#314724"></path><path d="M0 179L96 179L96 195L192 195L192 206L288 206L288 179L384 179L384 190L480 190L480 168L576 168L576 174L672 174L672 201L768 201L768 195L864 195L864 179L960 179L960 179L960 156L960 156L864 156L864 156L768 156L768 161L672 161L672 129L576 129L576 129L480 129L480 150L384 150L384 134L288 134L288 172L192 172L192 150L96 150L96 145L0 145Z" fill="#42622d"></path><path d="M0 249L96 249L96 293L192 293L192 347L288 347L288 320L384 320L384 287L480 287L480 260L576 260L576 249L672 249L672 347L768 347L768 314L864 314L864 287L960 287L960 276L960 177L960 177L864 177L864 193L768 193L768 199L672 199L672 172L576 172L576 166L480 166L480 188L384 188L384 177L288 177L288 204L192 204L192 193L96 193L96 177L0 177Z" fill="#4d7333"></path><path d="M0 276L96 276L96 314L192 314L192 368L288 368L288 352L384 352L384 325L480 325L480 287L576 287L576 276L672 276L672 368L768 368L768 336L864 336L864 303L960 303L960 303L960 274L960 285L864 285L864 312L768 312L768 345L672 345L672 247L576 247L576 258L480 258L480 285L384 285L384 318L288 318L288 345L192 345L192 291L96 291L96 247L0 247Z" fill="#4d7333"></path><path d="M0 330L96 330L96 368L192 368L192 406L288 406L288 379L384 379L384 374L480 374L480 336L576 336L576 320L672 320L672 406L768 406L768 384L864 384L864 330L960 330L960 347L960 301L960 301L864 301L864 334L768 334L768 366L672 366L672 274L576 274L576 285L480 285L480 323L384 323L384 350L288 350L288 366L192 366L192 312L96 312L96 274L0 274Z" fill="#42622d"></path><path d="M0 379L96 379L96 395L192 395L192 444L288 444L288 422L384 422L384 417L480 417L480 363L576 363L576 357L672 357L672 433L768 433L768 406L864 406L864 374L960 374L960 395L960 345L960 328L864 328L864 382L768 382L768 404L672 404L672 318L576 318L576 334L480 334L480 372L384 372L384 377L288 377L288 404L192 404L192 366L96 366L96 328L0 328Z" fill="#314724"></path><path d="M0 525L96 525L96 509L192 509L192 525L288 525L288 509L384 509L384 525L480 525L480 509L576 509L576 519L672 519L672 525L768 525L768 525L864 525L864 519L960 519L960 514L960 393L960 372L864 372L864 404L768 404L768 431L672 431L672 355L576 355L576 361L480 361L480 415L384 415L384 420L288 420L288 442L192 442L192 393L96 393L96 377L0 377Z" fill="#212e1a"></path><path d="M0 541L96 541L96 541L192 541L192 541L288 541L288 541L384 541L384 541L480 541L480 541L576 541L576 541L672 541L672 541L768 541L768 541L864 541L864 541L960 541L960 541L960 512L960 517L864 517L864 523L768 523L768 523L672 523L672 517L576 517L576 507L480 507L480 523L384 523L384 507L288 507L288 523L192 523L192 507L96 507L96 523L0 523Z" fill="#12160f"></path></svg>