<svg id="visual" viewBox="0 0 960 540" width="960" height="540" xmlns="http://www.w3.org/2000/svg" xmlns:xlink="http://www.w3.org/1999/xlink" version="1.1"><path d="M0 39L120 39L120 44L240 44L240 39L360 39L360 39L480 39L480 39L600 39L600 44L720 44L720 39L840 39L840 39L960 39L960 44L960 0L960 0L840 0L840 0L720 0L720 0L600 0L600 0L480 0L480 0L360 0L360 0L240 0L240 0L120 0L120 0L0 0Z" fill="#7dc34c"></path><path d="M0 87L120 87L120 93L240 93L240 82L360 82L360 82L480 82L480 87L600 87L600 87L720 87L720 77L840 77L840 87L960 87L960 82L960 42L960 37L840 37L840 37L720 37L720 42L600 42L600 37L480 37L480 37L360 37L360 37L240 37L240 42L120 42L120 37L0 37Z" fill="#58883a"></path><path d="M0 120L120 120L120 131L240 131L240 120L360 120L360 120L480 120L480 125L600 125L600 125L720 125L720 104L840 104L840 114L960 114L960 120L960 80L960 85L840 85L840 75L720 75L720 85L600 85L600 85L480 85L480 80L360 80L360 80L240 80L240 91L120 91L120 85L0 85Z" fill="#365027"></path><path d="M0 217L120 217L120 266L240 266L240 239L360 239L360 244L480 244L480 239L600 239L600 217L720 217L720 228L840 228L840 206L960 206L960 222L960 118L960 112L840 112L840 102L720 102L720 123L600 123L600 123L480 123L480 118L360 118L360 118L240 118L240 129L120 129L120 118L0 118Z" fill="#181f14"></path><path d="M0 347L120 347L120 368L240 368L240 363L360 363L360 336L480 336L480 357L600 357L600 357L720 357L720 341L840 341L840 347L960 347L960 347L960 220L960 204L840 204L840 226L720 226L720 215L600 215L600 237L480 237L480 242L360 242L360 237L240 237L240 264L120 264L120 215L0 215Z" fill="#12160f"></path><path d="M0 411L120 411L120 411L240 411L240 406L360 406L360 401L480 401L480 401L600 401L600 417L720 417L720 406L840 406L840 411L960 411L960 406L960 345L960 345L840 345L840 339L720 339L720 355L600 355L600 355L480 355L480 334L360 334L360 361L240 361L240 366L120 366L120 345L0 345Z" fill="#181f14"></path><path d="M0 487L120 487L120 471L240 471L240 476L360 476L360 471L480 471L480 476L600 476L600 471L720 471L720 476L840 476L840 476L960 476L960 476L960 404L960 409L840 409L840 404L720 404L720 415L600 415L600 399L480 399L480 399L360 399L360 404L240 404L240 409L120 409L120 409L0 409Z" fill="#365027"></path><path d="M0 514L120 514L120 509L240 509L240 509L360 509L360 509L480 509L480 509L600 509L600 509L720 509L720 514L840 514L840 509L960 509L960 514L960 474L960 474L840 474L840 474L720 474L720 469L600 469L600 474L480 474L480 469L360 469L360 474L240 474L240 469L120 469L120 485L0 485Z" fill="#58883a"></path><path d="M0 541L120 541L120 541L240 541L240 541L360 541L360 541L480 541L480 541L600 541L600 541L720 541L720 541L840 541L840 541L960 541L960 541L960 512L960 507L840 507L840 512L720 512L720 507L600 507L600 507L480 507L480 507L360 507L360 507L240 507L240 507L120 507L120 512L0 512Z" fill="#7dc34c"></path></svg>